# xmcd CD database file
#
# Track frame offsets:
#	187
#	32390
#	94960
#
# Disc length: 2511 seconds
#
# Revision: 1
# Processed by: cddbd v1.5.1PL0 Copyright (c) Steve Scherf et al.
# Submitted via: CDex 1.51
#
DISCID=1909cd03
DTITLE=Jonny Griffin - Johnny Griffin and Dextor Gordon Jazz Undulation
DYEAR=1969
DGENRE=Jazz
TTITLE0=Body and Soul
TTITLE1=All The Things You Are
TTITLE2=Blues Up And Down
EXTD=YEAR: 1969
EXTT0=
EXTT1=
EXTT2=
PLAYORDER=
